<?xml version="1.0" encoding="UTF-8"?>
<svg width="300" height="230" viewBox="0 0 300 230" fill="none" xmlns="http://www.w3.org/2000/svg">
  <rect width="300" height="230" rx="10" fill="#F3F4F6"/>
  
  <!-- Chrome Address Bar -->
  <rect x="20" y="20" width="260" height="35" rx="8" fill="#FFFFFF" stroke="#D1D5DB" stroke-width="1"/>
  <circle cx="37" cy="37" r="7" fill="#F87171"/>
  <circle cx="257" cy="37" r="7" fill="#34D399"/>
  <rect x="57" y="31" width="140" height="12" rx="6" fill="#E5E7EB"/>
  
  <!-- Menu Dropdown -->
  <rect x="100" y="75" width="180" height="135" rx="10" fill="#FFFFFF" stroke="#D1D5DB" stroke-width="1"/>
  
  <!-- Menu Items -->
  <rect x="115" y="90" width="150" height="15" rx="3" fill="#E5E7EB"/>
  <rect x="115" y="115" width="150" height="15" rx="3" fill="#E5E7EB"/>
  <rect x="115" y="140" width="150" height="15" rx="3" fill="#E5E7EB"/>
  
  <!-- Add to Home Screen Item -->
  <rect x="115" y="165" width="150" height="30" rx="3" fill="#9333EA" fill-opacity="0.1"/>
  <rect x="135" y="172" width="110" height="15" rx="3" fill="#9333EA" fill-opacity="0.2"/>
  
  <!-- Add Icon -->
  <circle cx="125" cy="180" r="10" fill="#9333EA" fill-opacity="0.3"/>
  <path d="M125 175L125 185" stroke="#9333EA" stroke-width="1.5" stroke-linecap="round"/>
  <path d="M120 180L130 180" stroke="#9333EA" stroke-width="1.5" stroke-linecap="round"/>
  
  <!-- Phone Frame -->
  <rect x="20" y="190" width="260" height="20" rx="5" fill="#DDDDDD"/>
  <rect x="120" y="195" width="60" height="10" rx="5" fill="#AAAAAA"/>
</svg>